#!OML:ASF Y:\EmotionMaleHayes\Project 1\Capture day 1\Session 1\Male1.ASF
:FULLY-SPECIFIED
:DEGREES
86
root -29.9001 16.8054 3.28118 114.754 85.6197 121.174
lowerback 7.61639 -0.0915288 -0.600863
upperback 3.69264 -0.0382917 1.28939
thorax -0.456331 0.0103221 1.66715
lowerneck -20.4044 -0.0389719 3.49572
upperneck 32.5801 -1.21739 1.56261
head 14.6955 0.424886 -0.112778
rclavicle -4.17448e-015 1.11319e-014
rhumerus -33.0226 5.67375 -86.5607
rradius 28.3313
rwrist 8.32115
rhand -9.06294 -33.1456
rfingers 7.12502
rthumb 16.8859 -62.4315
lclavicle -4.17448e-015 1.11319e-014
lhumerus -28.7264 -6.4799 89.9861
lradius 25.6144
lwrist -12.9424
lhand -17.4699 -27.7256
lfingers 7.12502
lthumb 8.7819 2.0717
rfemur 11.227 -4.26132 18.2396
rtibia 10.9999
rfoot -21.8149 -8.19978
rtoes 13.7931
lfemur 8.82119 -2.62298 -10.4
ltibia 12.1756
lfoot -13.3928 7.68355
ltoes -19.3995
87
root -29.9083 16.8012 3.28695 115.156 85.5743 121.573
lowerback 7.63197 -0.0487598 -0.585693
upperback 3.72067 0.0203181 1.27232
thorax -0.438013 0.0401812 1.63644
lowerneck -20.4184 -0.0353046 3.56747
upperneck 32.4979 -1.23321 1.53756
head 14.6606 0.420203 -0.139316
rclavicle -9.93923e-016 1.35174e-014
rhumerus -32.9615 5.39836 -86.3921
rradius 28.3087
rwrist 8.44229
rhand -9.06674 -32.8688
rfingers 7.12502
rthumb 16.8822 -62.155
lclavicle -9.93923e-016 1.35174e-014
lhumerus -28.5334 -6.26528 89.8464
lradius 25.5153
lwrist -13.3103
lhand -16.3749 -28.1925
lfingers 7.12502
lthumb 9.83843 1.55767
rfemur 11.1492 -4.22324 18.272
rtibia 11.0719
rfoot -21.7736 -8.36778
rtoes 13.5656
lfemur 8.72416 -2.64559 -10.4137
ltibia 12.2524
lfoot -13.283 7.69196
ltoes -19.8573
88
root -29.9153 16.7948 3.29428 115.244 85.6642 121.61
lowerback 7.54327 0.00353684 -0.349502
upperback 3.76807 0.104465 1.16748
thorax -0.34288 0.0855224 1.38905
lowerneck -20.5179 -0.0272811 3.89
upperneck 32.4783 -1.29179 1.36936
head 14.6703 0.410375 -0.2753
rclavicle 6.95746e-016 2.62396e-014
rhumerus -32.801 4.69032 -86.2415
rradius 28.1401
rwrist 8.62741
rhand -8.91372 -32.0529
rfingers 7.12502
rthumb 17.0295 -61.3264
lclavicle 6.95746e-016 2.62396e-014
lhumerus -28.4098 -6.7306 89.6848
lradius 25.6272
lwrist -12.896
lhand -15.9791 -28.1904
lfingers 7.12502
lthumb 10.2203 1.54132
rfemur 10.956 -4.19698 18.4341
rtibia 11.2473
rfoot -21.839 -8.44192
rtoes 13.2451
lfemur 8.63083 -2.58103 -10.2556
ltibia 12.2801
lfoot -13.3396 7.62754
ltoes -19.3351
89
root -29.9195 16.7991 3.29601 114.94 85.7115 121.414
lowerback 7.68079 0.0179585 -0.122599
upperback 3.79881 0.139772 1.06058
thorax -0.387677 0.107756 1.14867
lowerneck -20.562 -0.016908 4.18281
upperneck 32.4969 -1.32841 1.19598
head 14.6849 0.407263 -0.403821
rclavicle -9.14409e-015 1.11319e-014
rhumerus -32.8101 4.65933 -86.4423
rradius 28.2396
rwrist 8.67012
rhand -8.96137 -32.6846
rfingers 7.12502
rthumb 16.9836 -61.9621
lclavicle -9.14409e-015 1.11319e-014
lhumerus -28.4869 -7.36364 89.6802
lradius 25.7897
lwrist -12.6798
lhand -16.7811 -27.9991
lfingers 7.12502
lthumb 9.44652 1.76914
rfemur 10.9523 -4.30239 18.4156
rtibia 11.4182
rfoot -21.9538 -8.31198
rtoes 12.8471
lfemur 8.79544 -2.73199 -10.2771
ltibia 12.1842
lfoot -13.3994 7.63772
ltoes -18.591
90
root -29.9256 16.8013 3.29844 116.51 85.7576 123.007
lowerback 7.70867 -0.0339304 0.0586743
upperback 3.81657 0.0847089 1.07427
thorax -0.383556 0.0829257 1.06526
lowerneck -20.5332 0.0132041 4.16685
upperneck 32.4357 -1.2933 1.24079
head 14.6521 0.423843 -0.376679
rclavicle -1.59028e-015 1.82882e-014
rhumerus -32.7563 4.71509 -86.4222
rradius 28.1919
rwrist 8.82259
rhand -9.01701 -32.6211
rfingers 7.12502
rthumb 16.9301 -61.9032
lclavicle -1.59028e-015 1.82882e-014
lhumerus -28.4629 -7.53611 89.6668
lradius 25.907
lwrist -12.1626
lhand -16.9779 -27.6774
lfingers 7.12502
lthumb 9.2567 2.09935
rfemur 10.8842 -4.54243 18.4696
rtibia 11.5435
rfoot -21.9928 -8.20211
rtoes 12.5698
lfemur 8.72486 -2.65709 -10.1088
ltibia 12.27
lfoot -13.2569 7.46436
ltoes -19.3459
91
root -29.9283 16.8009 3.30209 120.276 85.8292 126.803
lowerback 7.67691 -0.0803803 0.200093
upperback 3.85251 0.0369732 1.24895
thorax -0.328095 0.0605147 1.16945
lowerneck -20.6094 0.0343115 3.99455
upperneck 32.4332 -1.21802 1.27916
head 14.6699 0.438946 -0.317706
rclavicle 3.27995e-015 1.43125e-014
rhumerus -32.7273 4.81819 -86.1455
rradius 28.1734
rwrist 8.85061
rhand -8.98386 -32.0559
rfingers 7.12502
rthumb 16.962 -61.3353
lclavicle 3.27995e-015 1.43125e-014
lhumerus -28.3398 -7.03303 89.737
lradius 25.9692
lwrist -12.5398
lhand -17.2874 -27.4415
lfingers 7.12502
lthumb 8.95799 2.34833
rfemur 10.9161 -4.68024 18.7484
rtibia 11.5359
rfoot -21.9852 -8.37846
rtoes 12.3455
lfemur 8.61787 -2.56315 -9.79588
ltibia 12.4321
lfoot -13.1961 7.19713
ltoes -19.6168
92
root -29.9331 16.7988 3.30887 124.562 85.9072 131.107
lowerback 7.71464 -0.152931 0.55257
upperback 3.80681 -0.0343941 1.27967
thorax -0.395175 0.0290867 1.00868
lowerneck -20.6139 0.0770465 4.0202
upperneck 32.4715 -1.16776 1.29471
head 14.6895 0.467986 -0.305976
rclavicle -2.78299e-015 -2.78299e-014
rhumerus -32.7479 4.72354 -86.1032
rradius 28.1275
rwrist 8.84598
rhand -8.9133 -31.7776
rfingers 7.12502
rthumb 17.0299 -61.0511
lclavicle -2.78299e-015 -2.78299e-014
lhumerus -28.573 -8.32297 90.0865
lradius 26.1488
lwrist -11.1528
lhand -17.5854 -27.2588
lfingers 7.12502
lthumb 8.67046 2.54312
rfemur 10.9477 -4.57577 19.1971
rtibia 11.4829
rfoot -22.0324 -8.76072
rtoes 11.9832
lfemur 8.58785 -2.78425 -9.54202
ltibia 12.4375
lfoot -13.3351 7.08476
ltoes -18.1919
93
root -29.9448 16.7973 3.31812 125.715 85.9711 132.326
lowerback 7.9178 -0.172463 0.592926
upperback 3.75588 -0.0522306 1.35833
thorax -0.559452 0.0204019 1.06888
lowerneck -20.5525 0.109725 4.0339
upperneck 32.4568 -1.10023 1.24018
head 14.6692 0.489927 -0.318512
rclavicle 4.96962e-016 -2.54444e-014
rhumerus -32.7001 4.74022 -86.0284
rradius 28.0233
rwrist 8.87211
rhand -9.0458 -31.8135
rfingers 7.12502
rthumb 16.9024 -61.0979
lclavicle 4.96962e-016 -2.54444e-014
lhumerus -28.7415 -8.62907 90.2559
lradius 26.3112
lwrist -10.619
lhand -17.9537 -27.3778
lfingers 7.12502
lthumb 8.31501 2.43859
rfemur 10.9179 -4.35481 19.4761
rtibia 11.5711
rfoot -22.0486 -9.05245
rtoes 11.9407
lfemur 8.61364 -2.91879 -9.40703
ltibia 12.4307
lfoot -13.4008 7.15314
ltoes -17.6504
94
root -29.9544 16.797 3.32244 123.792 85.9634 130.523
lowerback 8.15345 -0.133654 0.540615
upperback 3.751 -3.04347e-005 1.33084
thorax -0.695138 0.046742 1.06601
lowerneck -20.5232 0.133142 4.10771
upperneck 32.4235 -1.07074 1.18046
head 14.6471 0.501642 -0.350717
rclavicle 3.97569e-016 1.66979e-014
rhumerus -32.6812 4.79985 -86.0605
rradius 27.9932
rwrist 8.95171
rhand -9.20858 -31.9043
rfingers 7.12502
rthumb 16.7457 -61.2021
lclavicle 3.97569e-016 1.66979e-014
lhumerus -28.855 -8.61871 90.2466
lradius 26.4778
lwrist -10.5766
lhand -18.2535 -27.7303
lfingers 7.12502
lthumb 8.0257 2.09736
rfemur 10.9502 -4.21421 19.4215
rtibia 11.6736
rfoot -22.0301 -9.05458
rtoes 12.6357
lfemur 8.72043 -2.85261 -9.49246
ltibia 12.4335
lfoot -13.3473 7.24609
ltoes -17.9857
95
root -29.9595 16.7961 3.32295 122.14 85.9202 128.913
lowerback 8.2425 -0.061927 0.57791
upperback 3.74065 0.0982349 1.27213
thorax -0.756249 0.0965715 0.976115
lowerneck -20.483 0.104686 4.0799
upperneck 32.3604 -1.11415 1.22147
head 14.6093 0.483679 -0.337353
rclavicle -7.95139e-016 -1.43125e-014
rhumerus -32.6861 4.74516 -86.031
rradius 27.9895
rwrist 8.93533
rhand -9.22786 -31.8538
rfingers 7.12502
rthumb 16.7271 -61.1532
lclavicle -7.95139e-016 -1.43125e-014
lhumerus -28.8898 -8.80776 90.294
lradius 26.5446
lwrist -10.4924
lhand -19.0088 -27.8499
lfingers 7.12502
lthumb 7.29662 2.00426
rfemur 10.9067 -4.34487 19.2114
rtibia 11.7883
rfoot -21.9964 -8.79567
rtoes 12.9439
lfemur 8.81713 -2.97563 -9.70737
ltibia 12.326
lfoot -13.3952 7.4695
ltoes -17.5012
96
root -29.9651 16.7971 3.32492 120.751 85.7303 127.496
lowerback 8.09458 -0.0239627 0.410379
upperback 3.82889 0.134319 1.23472
thorax -0.584315 0.11358 1.02876
lowerneck -20.5576 0.0953616 3.97768
upperneck 32.3156 -1.12337 1.29376
head 14.6066 0.474994 -0.292307
rclavicle -1.98785e-015 -7.95139e-016
rhumerus -32.4348 4.60525 -85.8708
rradius 27.8861
rwrist 8.95725
rhand -9.23666 -31.6058
rfingers 7.12502
rthumb 16.7186 -60.9059
lclavicle -1.98785e-015 -7.95139e-016
lhumerus -28.6796 -8.7412 90.3138
lradius 26.5555
lwrist -10.5938
lhand -17.8675 -27.8963
lfingers 7.12502
lthumb 8.39822 1.91671
rfemur 10.8047 -4.51014 18.8822
rtibia 11.8939
rfoot -21.9458 -8.73462
rtoes 12.3363
lfemur 8.80049 -3.16679 -10.0532
ltibia 12.284
lfoot -13.4749 7.70848
ltoes -17.1331
97
root -29.9707 16.8001 3.32774 119.246 85.3851 125.98
lowerback 8.04866 -0.0375326 0.013474
upperback 3.87652 0.0869835 1.19744
thorax -0.509253 0.085614 1.21744
lowerneck -20.7164 0.137046 3.95965
upperneck 32.4157 -1.05028 1.24765
head 14.6881 0.500101 -0.294185
rclavicle 6.06293e-015 -9.54166e-015
rhumerus -32.2424 4.69655 -85.7733
rradius 27.8178
rwrist 8.98881
rhand -9.30249 -31.61
rfingers 7.12502
rthumb 16.6552 -60.9154
lclavicle 6.06293e-015 -9.54166e-015
lhumerus -28.6236 -8.20961 90.2882
lradius 26.6559
lwrist -11.1125
lhand -17.6505 -27.5276
lfingers 7.12502
lthumb 8.6076 2.27695
rfemur 10.813 -4.57564 18.4373
rtibia 11.8878
rfoot -21.9415 -8.80151
rtoes 12.055
lfemur 8.72701 -3.19074 -10.4935
ltibia 12.3561
lfoot -13.4372 7.65973
ltoes -16.8627
98
root -29.9755 16.8036 3.32938 118.754 85.0695 125.574
lowerback 8.15784 -0.0775018 -0.290492
upperback 3.87927 0.0131043 1.18251
thorax -0.564583 0.0456858 1.37924
lowerneck -20.6963 0.161316 3.87647
upperneck 32.4191 -0.971778 1.22055
head 14.6857 0.518841 -0.276649
rclavicle -1.59028e-015 7.95139e-015
rhumerus -32.2211 4.94365 -85.7256
rradius 27.8132
rwrist 8.90183
rhand -9.39122 -31.8361
rfingers 7.12502
rthumb 16.5698 -61.1487
lclavicle -1.59028e-015 7.95139e-015
lhumerus -28.7361 -7.86047 90.4122
lradius 26.6836
lwrist -11.7535
lhand -18.4584 -26.894
lfingers 7.12502
lthumb 7.82793 2.94104
rfemur 10.9779 -4.73487 18.0109
rtibia 11.8081
rfoot -21.933 -8.70801
rtoes 12.309
lfemur 8.72079 -3.11033 -10.8019
ltibia 12.4526
lfoot -13.4556 7.36417
ltoes -15.7234
99
root -29.9815 16.8042 3.33256 119.477 84.8797 126.409
lowerback 8.32922 -0.112376 -0.401586
upperback 3.83872 -0.0402402 1.19784
thorax -0.699139 0.0184561 1.46245
lowerneck -20.488 0.148199 3.7643
upperneck 32.3079 -0.927231 1.20142
head 14.5887 0.517316 -0.257934
rclavicle -2.98177e-016 -1.98785e-014
rhumerus -32.3232 5.06249 -85.6618
rradius 27.8509
rwrist 8.81173
rhand -9.45401 -31.8183
rfingers 7.12502
rthumb 16.5094 -61.1359
lclavicle -2.98177e-016 -1.98785e-014
lhumerus -28.8202 -7.68183 90.5537
lradius 26.5996
lwrist -11.9842
lhand -18.8392 -26.9308
lfingers 7.12502
lthumb 7.46034 2.91763
rfemur 11.149 -4.82075 17.836
rtibia 11.7286
rfoot -21.9438 -8.72401
rtoes 12.5401
lfemur 8.77331 -3.02859 -10.8768
ltibia 12.4502
lfoot -13.4475 7.12265
ltoes -15.1356
